<?xml version="1.0" encoding="iso-8859-1"?>
<!-- Generator: Adobe Illustrator 19.0.0, SVG Export Plug-In . SVG Version: 6.00 Build 0)  -->
<svg version="1.1" id="Layer_1" xmlns="http://www.w3.org/2000/svg" xmlns:xlink="http://www.w3.org/1999/xlink" x="0px" y="0px"
	 viewBox="0 0 512 512" style="enable-background:new 0 0 512 512;" xml:space="preserve">
<g>
	<path style="fill:#CDE2A3;" d="M456.497,401.669c-15.284,21.025-33.803,39.544-54.817,54.838
		c2.647-16.809-8.802-32.594-25.6-35.263c17.321-12.604,32.572-27.866,45.187-45.187
		C438.065,373.411,453.839,384.871,456.497,401.669z"/>
	<path style="fill:#CDE2A3;" d="M192.915,450.32c7.669,15.153,1.645,33.661-13.497,41.385l-0.022,0.065
		c-25.001-8.127-48.27-20.11-69.076-35.263c16.809-2.669,28.269-18.443,25.622-35.241
		C153.11,433.751,172.293,443.632,192.915,450.32z"/>
	<path style="fill:#CDE2A3;" d="M61.68,192.915c-6.449,19.859-9.935,41.069-9.935,63.085c-12.037,12.037-31.537,12.037-43.574,0
		c0-26.733,4.227-52.475,12.059-76.604l0.065,0.022C28.018,194.56,46.527,200.584,61.68,192.915z"/>
	<path style="fill:#CDE2A3;" d="M256,8.17c-12.037,12.037-12.037,31.537,0,43.574c-22.06,0-43.291,3.497-63.183,9.968
		c-15.12-7.745-21.112-26.275-13.399-41.418l-0.022-0.065C203.525,12.397,229.267,8.17,256,8.17z"/>
</g>
<g>
	<path style="fill:#80D2D2;" d="M179.396,20.229l0.022,0.065c-7.713,15.142-1.721,33.672,13.399,41.418
		c-20.6,6.689-39.751,16.569-56.897,29.042c-16.798-2.669-28.247-18.454-25.589-35.252
		C131.126,40.339,154.395,28.356,179.396,20.229z"/>
	<path style="fill:#80D2D2;" d="M51.745,256c0,22.06,3.497,43.291,9.968,63.183c-7.745,15.12-26.275,21.112-41.418,13.399
		l-0.065,0.022C12.397,308.475,8.17,282.733,8.17,256C20.208,268.037,39.707,268.037,51.745,256z"/>
	<path style="fill:#80D2D2;" d="M192.915,450.32c19.87,6.449,41.069,9.935,63.085,9.935c12.037,12.037,12.037,31.537,0,43.574
		c-26.733,0-52.475-4.227-76.604-12.059l0.022-0.065C194.56,483.982,200.584,465.473,192.915,450.32z"/>
	<path style="fill:#80D2D2;" d="M491.705,332.582l0.065,0.022c-8.127,25.001-20.11,48.27-35.263,69.076
		c-2.669-16.809-18.443-28.269-35.241-25.622c12.484-17.168,22.365-36.352,29.053-56.974
		C465.473,311.416,483.982,317.44,491.705,332.582z"/>
</g>
<g>
	<path style="fill:#0CAAA9;" d="M460.255,256c12.037-12.037,31.537-12.037,43.574,0c0,26.733-4.227,52.475-12.059,76.604
		l-0.065-0.022c-7.724-15.142-26.232-21.166-41.385-13.497C456.769,299.226,460.255,278.016,460.255,256z"/>
	<path style="fill:#0CAAA9;" d="M319.183,450.288c15.12,7.745,21.112,26.275,13.399,41.418l0.022,0.065
		c-24.129,7.833-49.871,12.059-76.604,12.059c12.037-12.037,12.037-31.537,0-43.574C278.06,460.255,299.291,456.758,319.183,450.288
		z"/>
	<path style="fill:#0CAAA9;" d="M61.712,319.183c6.689,20.6,16.569,39.751,29.042,56.897c-2.669,16.798-18.454,28.247-35.252,25.589
		c-15.164-20.796-27.147-44.065-35.274-69.066l0.065-0.022C35.437,340.295,53.967,334.303,61.712,319.183z"/>
	<path style="fill:#0CAAA9;" d="M135.92,90.755c-17.321,12.604-32.572,27.866-45.187,45.187
		c-16.798,2.647-32.572-8.813-35.23-25.611c15.284-21.025,33.803-39.544,54.817-54.838C107.673,72.301,119.122,88.086,135.92,90.755
		z"/>
</g>
<g>
	<path style="fill:#AECE71;" d="M332.604,20.229l-0.022,0.065c-15.142,7.724-21.166,26.232-13.497,41.385
		c-19.859-6.449-41.069-9.935-63.085-9.935c-12.037-12.037-12.037-31.537,0-43.574C282.733,8.17,308.475,12.397,332.604,20.229z"/>
	<path style="fill:#AECE71;" d="M55.503,110.331c2.658,16.798,18.432,28.258,35.23,25.611
		c-12.484,17.168-22.365,36.352-29.053,56.974c-15.153,7.669-33.661,1.645-41.385-13.497l-0.065-0.022
		C28.356,154.395,40.339,131.126,55.503,110.331z"/>
	<path style="fill:#AECE71;" d="M135.941,421.267c2.647,16.798-8.813,32.572-25.611,35.23
		c-21.025-15.284-39.544-33.803-54.838-54.817c16.809,2.647,32.594-8.802,35.263-25.6
		C103.359,393.401,118.621,408.652,135.941,421.267z"/>
	<path style="fill:#AECE71;" d="M376.08,421.245c16.798,2.669,28.247,18.454,25.589,35.252
		c-20.796,15.164-44.065,27.147-69.066,35.274l-0.022-0.065c7.713-15.142,1.721-33.672-13.399-41.418
		C339.783,443.599,358.934,433.718,376.08,421.245z"/>
	<path style="fill:#AECE71;" d="M503.83,256c-12.037-12.037-31.537-12.037-43.574,0c0-22.06-3.497-43.291-9.968-63.183
		c7.745-15.12,26.275-21.112,41.418-13.399l0.065-0.022C499.603,203.525,503.83,229.267,503.83,256z"/>
</g>
<path style="fill:#80D2D2;" d="M456.508,110.32c-16.809-2.647-32.594,8.802-35.263,25.6c-12.604-17.321-27.866-32.572-45.187-45.187
	c-2.647-16.798,8.813-32.572,25.611-35.23C422.694,70.787,441.213,89.306,456.508,110.32z"/>
<path style="fill:#CDE2A3;" d="M491.771,179.396l-0.065,0.022c-15.142-7.713-33.672-1.721-41.418,13.399
	c-6.689-20.6-16.569-39.751-29.042-56.897c2.669-16.798,18.454-28.247,35.252-25.589
	C471.661,131.126,483.644,154.395,491.771,179.396z"/>
<path style="fill:#0CAAA9;" d="M401.68,55.492c-16.809,2.669-28.269,18.443-25.622,35.241
	c-17.168-12.484-36.352-22.365-56.974-29.053c-7.669-15.153-1.645-33.661,13.497-41.385l0.022-0.065
	C357.605,28.356,380.874,40.339,401.68,55.492z"/>
<path style="fill:#700019;" d="M512,255.992c-0.002-68.377-26.63-132.661-74.981-181.012C388.667,26.628,324.38,0,256,0
	S123.333,26.628,74.981,74.981C26.631,123.331,0.002,187.615,0,255.992c0.002,68.392,26.631,132.677,74.981,181.027
	C123.333,485.372,187.62,512,256,512s132.667-26.628,181.019-74.981C485.369,388.669,511.998,324.385,512,255.992z M458.227,384.478
	c-5.294-7.707-13.24-13.302-22.3-15.688c8.543-13.579,15.593-28.185,20.917-43.592c4.637-1.617,9.645-1.704,14.4-0.159
	c4.733,1.538,8.72,4.535,11.521,8.545C476.58,351.609,468.306,368.671,458.227,384.478z M451.934,118.148
	c10.835,15.355,19.917,32.029,26.943,49.738c-4.421-0.129-8.878,0.503-13.211,1.91c-4.671,1.518-8.925,3.86-12.619,6.875
	c-6.082-15.054-13.839-29.256-23.043-42.375C432.883,124.637,441.892,118.031,451.934,118.148z M476.293,309.497
	c-4.664-1.515-9.474-2.121-14.228-1.856c3.853-15.37,6.025-31.396,6.313-47.877c8.023-6.09,19.187-6.111,27.235-0.07
	c-0.294,19.312-2.865,38.081-7.489,56.038C484.618,313.023,480.633,310.908,476.293,309.497z M467.919,241.466
	c-1.116-16.425-4.101-32.343-8.754-47.543c2.803-4.032,6.801-7.043,11.55-8.586c4.735-1.538,9.725-1.458,14.351,0.143
	c5.476,17.753,8.931,36.381,10.116,55.615C486.374,237.956,476.657,238.082,467.919,241.466z M440.644,103.38
	c-8.961,2.661-16.733,8.495-21.795,16.383c-10.36-12.363-22.094-23.533-34.972-33.272c-0.132-4.953,1.336-9.788,4.298-13.864
	c2.899-3.99,6.935-6.84,11.561-8.278C414.854,75.715,428.591,88.824,440.644,103.38z M134.293,81.998
	c-4.747-1.406-8.889-4.294-11.849-8.368c-2.901-3.993-4.364-8.714-4.301-13.561c15.355-10.836,32.031-19.918,49.74-26.944
	c-0.129,4.422,0.504,8.879,1.912,13.211c1.519,4.671,3.86,8.924,6.875,12.618C161.617,65.036,147.414,72.793,134.293,81.998z
	 M193.924,52.836c-4.032-2.802-7.044-6.801-8.587-11.552c-1.539-4.735-1.458-9.726,0.143-14.35
	c17.753-5.476,36.381-8.931,55.615-10.117c-3.14,8.809-3.012,18.526,0.37,27.263C225.04,45.197,209.123,48.182,193.924,52.836z
	 M259.765,43.622c-6.09-8.023-6.112-19.187-0.07-27.235c19.312,0.294,38.081,2.865,56.038,7.489c-2.71,3.506-4.825,7.49-6.236,11.83
	c-1.515,4.665-2.122,9.474-1.857,14.228C292.271,46.082,276.245,43.91,259.765,43.622z M325.197,55.157
	c-1.617-4.639-1.704-9.647-0.159-14.399c1.538-4.733,4.535-8.72,8.545-11.521c18.016,6.181,35.069,14.45,50.869,24.522
	c-3.625,2.487-6.838,5.601-9.499,9.264c-2.9,3.991-4.97,8.407-6.183,13.04C355.196,67.523,340.597,60.477,325.197,55.157z
	 M103.361,71.373c1.245,4.204,3.21,8.209,5.864,11.861c2.908,4.001,6.478,7.342,10.522,9.931
	c-12.356,10.355-23.519,22.085-33.254,34.955c-10.071,0.252-19.143-6.261-22.142-15.859C75.712,97.15,88.815,83.42,103.361,71.373z
	 M60.066,393.853c-10.838-15.36-19.923-32.04-26.95-49.754c0.377,0.011,0.753,0.034,1.13,0.034c4.051,0,8.122-0.639,12.088-1.927
	c4.676-1.519,8.932-3.864,12.628-6.883c6.01,14.931,13.715,29.187,23.008,42.465C79.066,387.401,70.088,393.972,60.066,393.853z
	 M44.078,270.536c1.112,16.19,4.083,32.126,8.781,47.508c-2.803,4.048-6.812,7.071-11.574,8.619
	c-4.734,1.539-9.725,1.458-14.351-0.143c-5.476-17.753-8.931-36.381-10.116-55.615c4.24,1.511,8.689,2.271,13.14,2.271
	C34.753,273.177,39.546,272.29,44.078,270.536z M43.622,252.235c-8.023,6.09-19.187,6.111-27.235,0.07
	c0.294-19.312,2.865-38.081,7.489-56.038c3.506,2.71,7.49,4.825,11.832,6.236c3.965,1.289,8.035,1.928,12.086,1.928
	c0.715,0,1.427-0.024,2.14-0.063C46.081,219.734,43.91,235.759,43.622,252.235z M55.157,186.802c-4.639,1.617-9.645,1.704-14.4,0.16
	c-4.733-1.538-8.72-4.535-11.521-8.545c6.184-18.026,14.459-35.086,24.537-50.894c5.293,7.707,13.236,13.307,22.298,15.691
	C67.528,156.792,60.479,171.396,55.157,186.802z M71.352,408.614c8.935-2.653,16.691-8.451,21.755-16.301
	c0.388,0.463,0.768,0.932,1.16,1.393c2.926,3.434,8.083,3.845,11.517,0.919c3.435-2.927,3.845-8.083,0.919-11.518
	c-30.171-35.403-46.787-80.542-46.788-127.103c0-21.128,3.37-41.473,9.578-60.549c0.011-0.034,0.022-0.068,0.033-0.101
	C95.127,116.825,169.037,59.915,256,59.915s160.873,56.91,186.474,135.44c0.011,0.034,0.022,0.068,0.033,0.101
	c6.207,19.076,9.578,39.42,9.578,60.539c0,21.128-3.37,41.472-9.578,60.548c-0.011,0.034-0.022,0.068-0.033,0.101
	c-19.373,59.424-66.407,106.458-125.831,125.83c-0.033,0.011-0.065,0.021-0.098,0.032c-19.077,6.208-39.423,9.579-60.545,9.579
	c-46.563,0-91.705-16.616-127.107-46.788c-3.435-2.928-8.592-2.515-11.518,0.918c-2.927,3.434-2.516,8.591,0.918,11.518
	c3.203,2.73,6.486,5.348,9.831,7.871c0.11,4.92-1.355,9.72-4.299,13.771c-2.899,3.99-6.935,6.84-11.562,8.278
	C97.144,436.284,83.405,423.171,71.352,408.614z M389.556,438.37c2.901,3.993,4.364,8.714,4.301,13.561
	c-15.355,10.836-32.03,19.918-49.74,26.944c0.129-4.422-0.504-8.879-1.912-13.211c-1.519-4.671-3.86-8.924-6.875-12.618
	c15.055-6.083,29.257-13.84,42.377-23.045C382.454,431.408,386.596,434.297,389.556,438.37z M270.906,495.182
	c3.14-8.809,3.012-18.526-0.37-27.263c16.424-1.116,32.343-4.101,47.542-8.754c4.032,2.802,7.044,6.801,8.587,11.552
	c1.539,4.735,1.458,9.726-0.143,14.35C308.768,490.543,290.139,493.996,270.906,495.182z M196.267,488.123
	c2.71-3.506,4.825-7.49,6.236-11.83c1.519-4.672,2.124-9.492,1.855-14.253c15.576,3.906,31.637,6.056,47.882,6.343
	c6.085,8.023,6.106,19.183,0.065,27.229C232.994,495.319,214.224,492.748,196.267,488.123z M127.547,458.243
	c3.625-2.487,6.838-5.601,9.499-9.264c2.888-3.976,4.953-8.373,6.169-12.986c13.717,8.594,28.342,15.582,43.58,20.833
	c1.623,4.644,1.711,9.658,0.166,14.418c-1.538,4.733-4.535,8.72-8.545,11.521C160.401,476.584,143.348,468.314,127.547,458.243z
	 M408.639,440.627c-1.245-4.204-3.21-8.209-5.864-11.861c-2.908-4.001-6.478-7.342-10.522-9.931
	c12.356-10.355,23.52-22.085,33.255-34.955c10.065-0.253,19.141,6.262,22.141,15.86C436.288,414.85,423.185,428.58,408.639,440.627z
	"/>
<g>
</g>
<g>
</g>
<g>
</g>
<g>
</g>
<g>
</g>
<g>
</g>
<g>
</g>
<g>
</g>
<g>
</g>
<g>
</g>
<g>
</g>
<g>
</g>
<g>
</g>
<g>
</g>
<g>
</g>
</svg>
