<?xml version="1.0" encoding="UTF-8" standalone="no"?>
<svg
   xmlns:dc="http://purl.org/dc/elements/1.1/"
   xmlns:cc="http://creativecommons.org/ns#"
   xmlns:rdf="http://www.w3.org/1999/02/22-rdf-syntax-ns#"
   xmlns:svg="http://www.w3.org/2000/svg"
   xmlns="http://www.w3.org/2000/svg"
   xmlns:sodipodi="http://sodipodi.sourceforge.net/DTD/sodipodi-0.dtd"
   xmlns:inkscape="http://www.inkscape.org/namespaces/inkscape"
   viewBox="0 0 470 470"
   version="1.1"
   id="svg3682"
   sodipodi:docname="hula-hoop-bw.svg"
   inkscape:version="0.92.1 r15371">
  <metadata
     id="metadata3688">
    <rdf:RDF>
      <cc:Work
         rdf:about="">
        <dc:format>image/svg+xml</dc:format>
        <dc:type
           rdf:resource="http://purl.org/dc/dcmitype/StillImage" />
        <dc:title></dc:title>
      </cc:Work>
    </rdf:RDF>
  </metadata>
  <defs
     id="defs3686" />
  <sodipodi:namedview
     pagecolor="#ffffff"
     bordercolor="#666666"
     borderopacity="1"
     objecttolerance="10"
     gridtolerance="10"
     guidetolerance="10"
     inkscape:pageopacity="0"
     inkscape:pageshadow="2"
     inkscape:window-width="3200"
     inkscape:window-height="1675"
     id="namedview3684"
     showgrid="false"
     inkscape:zoom="2.9744681"
     inkscape:cx="155.33768"
     inkscape:cy="80.689174"
     inkscape:window-x="-13"
     inkscape:window-y="-13"
     inkscape:window-maximized="1"
     inkscape:current-layer="svg3682" />
  <path
     id="path3680"
     d="M 235,0 C 172.229,0 118.164,21.591373 68.830078,68.830078 24.446078,113.21408 0.002,172.22419 0,234.99219 0.002,297.77419 24.446078,356.78592 68.830078,401.16992 113.21608,445.55592 172.46728,470 235.23828,470 298.00928,470 380.23814,426.43369 407.4192,394.44603 439.10811,357.15337 469.998,297.77419 470,234.99219 469.998,172.22419 445.55392,113.21408 401.16992,68.830078 356.78392,24.444078 297.771,0 235,0 Z m 3.39258,15.042969 c 17.728,0.27 34.95545,2.63 51.43945,6.875 -2.488,3.218 -4.42765,6.875375 -5.72265,10.859375 -1.39101,4.282 -1.94808,8.6985 -1.70508,13.0625 -14.108,-3.537 -28.82122,-5.530922 -43.94922,-5.794922 -5.59,-7.365 -5.6095,-17.613953 -0.0625,-25.001953 z M 221.31641,15.4375 c -2.882,8.086 -2.76516,17.006344 0.33984,25.027344 -15.077,1.024 -29.68862,3.765109 -43.64063,8.037109 -3.70099,-2.572 -6.46581,-6.242515 -7.88281,-10.603515 -1.413,-4.347001 -1.33814,-8.928829 0.13086,-13.173829 16.297,-5.027 33.39674,-8.198109 51.05274,-9.287109 z m 84.90234,11.400391 c 16.538,5.674 32.19131,13.264765 46.69531,22.509765 -3.328,2.283 -6.27575,5.141906 -8.71875,8.503906 -2.662,3.664001 -4.56178,7.717704 -5.67578,11.970704 -12.46,-7.838 -25.86205,-14.305453 -39.99805,-19.189454 -1.484,-4.258 -1.56448,-8.856749 -0.14648,-13.21875 1.412,-4.344999 4.16275,-8.005171 7.84375,-10.576171 z M 154.11133,30.40625 c -0.118,4.059 0.46386,8.150953 1.75586,12.126953 1.394,4.288 3.54254,8.192985 6.31054,11.583985 -13.819,5.584 -26.85639,12.704296 -38.90039,21.154296 -4.358,-1.291 -8.15995,-3.94164 -10.87695,-7.68164 -2.663,-3.665 -4.00722,-7.999219 -3.94922,-12.449219 14.095,-9.947 29.40316,-18.284375 45.66016,-24.734375 z M 235,55 c 79.829,0 147.67673,52.24208 171.17773,124.33008 l 0.0293,0.0937 c 5.698,17.511 8.79102,36.18526 8.79102,55.57226 0,19.395 -3.09302,38.06908 -8.79102,55.58008 l -0.0293,0.0937 c -17.784,54.549 -60.96076,97.72481 -115.50976,115.50781 -0.03,0.01 -0.0599,0.0193 -0.0899,0.0293 C 273.06612,411.90603 254.389,415 235,415 c -42.743,0 -84.18169,-15.25222 -116.67969,-42.94922 -3.153,-2.688 -7.88822,-2.3102 -10.57422,0.8418 -2.687,3.152 -2.30925,7.88722 0.84375,10.57422 2.94,2.506 5.95439,4.90861 9.02539,7.22461 0.101,4.516 -1.24331,8.92262 -3.94531,12.64062 -2.661,3.663 -6.36723,6.27961 -10.61523,7.59961 -13.880002,-10.436 -26.492643,-22.47294 -37.556643,-35.83594 8.202,-2.435 15.322703,-7.75884 19.970703,-14.96484 0.356,0.425 0.704453,0.8563 1.064453,1.2793 2.686,3.152 7.420266,3.52975 10.572266,0.84375 3.153001,-2.687 3.529751,-7.41927 0.84375,-10.57227 C 70.253219,319.18264 55.001,277.74591 55,235.00391 c 0,-19.395 3.094969,-38.07104 8.792969,-55.58203 l 0.0293,-0.0938 C 87.324266,107.24112 155.171,55 235,55 Z m 131.94531,4.070312 c 13.878,10.434 26.48678,22.468079 37.55078,35.830079 -8.226,2.443 -15.35886,7.798059 -20.00586,15.039059 -9.51,-11.348997 -20.28251,-21.602966 -32.10351,-30.542966 -0.121,-4.547 1.22631,-8.984562 3.94531,-12.726562 2.661,-3.663 6.36628,-6.27961 10.61328,-7.59961 z M 94.882812,65.517578 c 1.143001,3.859 2.946813,7.536672 5.382808,10.888672 2.669,3.673 5.94621,6.739234 9.65821,9.115234 -11.342002,9.506 -21.589392,20.272886 -30.525392,32.087896 -9.245001,0.23099 -17.573172,-5.74565 -20.326172,-14.55665 10.429,-13.870996 22.457546,-26.476152 35.810546,-37.535152 z M 414.86133,108.45508 c 9.946,14.095 18.28242,29.4022 24.73242,45.6582 -4.058,-0.118 -8.14995,0.46291 -12.12695,1.75391 -4.288,1.393 -8.19299,3.54254 -11.58399,6.31054 -5.583,-13.819 -12.70334,-26.85543 -21.15234,-38.89843 2.643,-8.866 10.91286,-14.93122 20.13086,-14.82422 z M 49.361328,117.0625 c 4.859,7.075 12.14975,12.2153 20.46875,14.4043 -7.841,12.464 -14.311265,25.86972 -19.197266,40.01172 -4.258,1.484 -8.855703,1.56348 -13.220703,0.14648 -4.345,-1.412 -8.003218,-4.16275 -10.574218,-7.84375 5.677,-16.547 13.272437,-32.20775 22.523437,-46.71875 z m 389.365232,52.05469 c 2.21925,0.0256 4.42533,0.41198 6.54883,1.14648 5.027,16.297 8.19911,33.39674 9.28711,51.05274 -8.086,-2.881 -17.00634,-2.76421 -25.02734,0.34179 -1.024,-15.078 -3.76611,-29.68957 -8.03711,-43.64258 2.573,-3.70099 6.24351,-6.46581 10.60351,-7.88281 2.1735,-0.706 4.40575,-1.04125 6.625,-1.01562 z M 21.917969,180.16797 c 3.218,2.488 6.876328,4.42766 10.861328,5.72265 3.64,1.183 7.37475,1.76954 11.09375,1.76954 0.656,0 1.310844,-0.0206 1.964844,-0.0566 -3.537,14.106 -5.528969,28.8164 -5.792969,43.9414 -7.365,5.59 -17.613953,5.6085 -25.001953,0.0625 0.27,-17.728 2.63,-34.95545 6.875,-51.43945 z m 420.529301,54.07812 c 4.40612,-0.0105 8.81576,1.37153 12.50976,4.14453 -0.27,17.728 -2.63,34.95741 -6.875,51.44141 -3.218,-2.487 -6.87537,-4.42765 -10.85937,-5.72265 -4.281,-1.39101 -8.6985,-1.94808 -13.0625,-1.70508 3.537,-14.109 5.53092,-28.82022 5.79492,-43.94922 3.6825,-2.795 8.08606,-4.19849 12.49219,-4.20899 z M 40.462891,248.34375 c 1.021,14.862 3.747547,29.49133 8.060547,43.61133 -2.573001,3.716 -6.253001,6.49111 -10.625,7.91211 -4.346,1.413 -8.926829,1.33814 -13.173829,-0.13086 -5.027,-16.297 -8.199109,-33.39674 -9.287109,-51.05274 3.892,1.387 7.9765,2.08399 12.0625,2.08399 4.402,0 8.802891,-0.81383 12.962891,-2.42383 z M 425.9375,297.36133 c 2.227,-0.0283 4.46789,0.30662 6.65039,1.01562 4.345,1.412 8.00322,4.16275 10.57422,7.84375 -5.677,16.546 -13.27144,32.20775 -22.52344,46.71875 -4.86,-7.075 -12.1537,-12.21234 -20.4707,-14.40234 7.842,-12.465 14.31222,-25.87263 19.19922,-40.01563 2.1285,-0.742 4.34331,-1.1319 6.57031,-1.16015 z M 54.125,307.81641 c 5.517,13.706 12.590094,26.79342 21.121094,38.98242 -2.666,8.824 -10.907422,14.85509 -20.107422,14.74609 -9.949,-14.1 -18.288281,-29.41283 -24.738281,-45.67383 0.346,0.01 0.691109,0.0312 1.037109,0.0312 3.719,0 7.455703,-0.58557 11.095703,-1.76757 4.292,-1.394 8.198797,-3.54736 11.591797,-6.31836 z m 336.47852,44.57421 c 9.239,-0.232 17.57021,5.7476 20.32421,14.5586 -10.429,13.87 -22.45754,26.4742 -35.81054,37.5332 -1.143,-3.859 -2.94682,-7.53667 -5.38281,-10.88867 -2.669,-3.673 -5.94621,-6.73923 -9.65821,-9.11523 11.342,-9.506 21.59135,-20.27289 30.52735,-32.0879 z m -43.88086,42.3379 c 4.358,1.291 8.15995,3.94264 10.87695,7.68164 2.663,3.665 4.00722,7.99922 3.94922,12.44922 -14.095,9.947 -29.40316,18.28437 -45.66016,24.73437 0.118,-4.059 -0.46386,-8.15095 -1.75586,-12.12695 -1.394,-4.288 -3.54254,-8.19299 -6.31054,-11.58399 13.82,-5.584 26.85639,-12.70429 38.90039,-21.15429 z m -215.25586,5.5 c 12.592,7.889 26.01786,14.30304 40.00586,19.12304 1.49,4.263 1.56939,8.86733 0.15039,13.23633 -1.412,4.345 -4.16275,8.00322 -7.84375,10.57422 -16.537,-5.674 -32.19032,-13.26477 -46.69532,-22.50977 3.328,-2.283 6.27771,-5.1419 8.72071,-8.5039 2.651,-3.65 4.54611,-7.68492 5.66211,-11.91992 z m 160.51758,21.26953 c 3.701,2.572 6.46581,6.24447 7.88281,10.60547 1.413,4.347 1.33814,8.92687 -0.13086,13.17187 -16.298,5.027 -33.39674,8.19811 -51.05274,9.28711 2.882,-8.086 2.76516,-17.00634 -0.33984,-25.02734 15.077,-1.024 29.68862,-3.76611 43.64063,-8.03711 z m -104.39063,2.64062 c 14.298,3.586 29.04308,5.55827 43.95508,5.82227 5.586,7.365 5.60359,17.60814 0.0586,24.99414 -17.727,-0.269 -34.95545,-2.62805 -51.43945,-6.87305 2.488,-3.218 4.42766,-6.87537 5.72265,-10.85937 1.39401,-4.289 1.95013,-8.71299 1.70313,-13.08399 z"
     inkscape:connector-curvature="0"
     sodipodi:nodetypes="sccssscssccccccccccccccccccccccccccsccsccccsccccccccccccccscccccccccccccccccccccccccccccccccscccccscccccscccccsccccccccccccscccccccccccccccccccccccccccccccccccc" />
</svg>
