<?xml version="1.0" encoding="UTF-8" standalone="no"?>
<!-- Created with Inkscape (http://www.inkscape.org/) -->

<svg
   xmlns:dc="http://purl.org/dc/elements/1.1/"
   xmlns:cc="http://creativecommons.org/ns#"
   xmlns:rdf="http://www.w3.org/1999/02/22-rdf-syntax-ns#"
   xmlns:svg="http://www.w3.org/2000/svg"
   xmlns="http://www.w3.org/2000/svg"
   xmlns:sodipodi="http://sodipodi.sourceforge.net/DTD/sodipodi-0.dtd"
   xmlns:inkscape="http://www.inkscape.org/namespaces/inkscape"
   version="1.1"
   id="svg19"
   width="247"
   height="256"
   viewBox="0 0 247 256"
   sodipodi:docname="hula-dancer.svg"
   inkscape:version="0.92.1 r15371">
  <metadata
     id="metadata25">
    <rdf:RDF>
      <cc:Work
         rdf:about="">
        <dc:format>image/svg+xml</dc:format>
        <dc:type
           rdf:resource="http://purl.org/dc/dcmitype/StillImage" />
        <dc:title />
      </cc:Work>
    </rdf:RDF>
  </metadata>
  <defs
     id="defs23" />
  <sodipodi:namedview
     pagecolor="#ffffff"
     bordercolor="#666666"
     borderopacity="1"
     objecttolerance="10"
     gridtolerance="10"
     guidetolerance="10"
     inkscape:pageopacity="0"
     inkscape:pageshadow="2"
     inkscape:window-width="1596"
     inkscape:window-height="1660"
     id="namedview21"
     showgrid="false"
     inkscape:zoom="5.2149125"
     inkscape:cx="155.05366"
     inkscape:cy="130.90848"
     inkscape:window-x="-11"
     inkscape:window-y="0"
     inkscape:window-maximized="0"
     inkscape:current-layer="svg19" />
  <path
     style="fill:#000000"
     d="m 117.45826,255.23572 c -14.71861,-5.41194 0.2497,-51.79503 25.52452,-79.09418 l 6.67929,-7.21425 -2.04725,-10.15922 c -1.98232,-9.83698 -8.15913,-24.80467 -13.09949,-31.74276 l -1.92335,-2.7011 4.68314,-1.23805 c 13.51492,-3.57284 18.70051,-10.39967 13.20564,-17.38526 -2.7489,-3.49467 -6.31154,-3.8789 -13.0866,-1.41141 -7.16748,2.61042 -8.34506,1.71384 -3.86755,-2.94463 6.42834,-6.688144 13.40028,-8.214142 20.72149,-4.535465 13.74645,6.907155 28.93219,5.067855 41.51177,-5.027925 6.39415,-5.131648 8.89365,-5.788705 12.47588,-3.27961 12.03218,8.427666 -18.87944,28.19534 -40.66167,26.00274 l -6.38417,-0.64263 0.47711,7.43443 c 0.81453,12.69213 16.1345,33.11916 23.03482,30.71369 15.97871,-5.57021 31.91079,-22.70112 40.98125,-44.06493 5.41166,-12.746177 20.83717,-13.732283 20.75687,-1.32692 -0.15832,24.45993 -38.17344,61.91051 -69.34051,68.31077 -16.74509,3.43866 -40.75817,38.50594 -45.7178,66.76357 -2.07734,11.8357 -6.60079,16.23562 -13.92339,13.54314 z m 0.95056,-133.65254 C 100.31546,116.70336 85.781263,87.945156 101.4084,87.945156 c 3.31418,0 4.3951,1.170114 9.09285,9.843124 5.93233,10.95229 13.1522,13.33956 26.30549,8.69798 9.60396,-3.38907 15.12053,-0.53022 13.26244,6.873 -1.56614,6.23996 -20.64311,11.1953 -31.66036,8.22392 z M 44.257874,115.45764 C -7.8411118,102.26394 -16.273639,30.590555 31.458257,6.6656038 80.972273,-18.152612 134.49238,33.606536 110.89456,83.488233 c -2.3764,5.023283 -11.777111,4.336141 -9.5359,-0.666817 C 128.96562,43.309738 68.835852,-19.932704 25.390531,24.192381 -18.079714,68.342785 34.839975,130.18354 89.143975,98.086616 l 4.151888,-0.04605 1.03607,2.972056 c 3.20503,9.19395 -31.39542,19.17526 -50.074059,14.44502 z M 158.95826,91.007484 c -23.24567,-5.638957 -20.82564,-38.364328 2.94898,-39.878182 26.22948,-1.670167 29.57598,36.092872 3.55102,40.07093 -1.925,0.294247 -4.85,0.20751 -6.5,-0.192748 z"
     id="path29"
     inkscape:connector-curvature="0"
     sodipodi:nodetypes="sscsccsccssssscssssssssssscsssccscccsssss" />
</svg>
