<?xml version="1.0" encoding="iso-8859-1"?>
<!-- Generator: Adobe Illustrator 19.0.0, SVG Export Plug-In . SVG Version: 6.00 Build 0)  -->
<svg version="1.1" id="Layer_1" xmlns="http://www.w3.org/2000/svg" xmlns:xlink="http://www.w3.org/1999/xlink" x="0px" y="0px"
	 viewBox="0 0 512 512" style="enable-background:new 0 0 512 512;" xml:space="preserve">
<path style="fill:#D9F2A7;" d="M12.524,176.893l-0.068-0.023C4.366,201.796,0,228.386,0,256l22.505,20.578L45.011,256
	c0-22.742,3.601-44.651,10.263-65.165L12.524,176.893z"/>
<path style="fill:#B8DE6F;" d="M48.893,105.528c-15.664,21.481-28.042,45.517-36.436,71.342l0.068,0.023
	c7.978,15.641,27.097,21.864,42.749,13.942c6.909-21.301,17.115-41.118,30.011-58.852L48.893,105.528z"/>
<path style="fill:#00BAB9;" d="M105.517,48.882C83.81,64.681,64.681,83.81,48.893,105.528c2.746,17.352,19.04,29.19,36.391,26.455
	c13.031-17.892,28.785-33.657,46.676-46.676L105.517,48.882z"/>
<path style="fill:#80E2E2;" d="M176.893,12.524l-0.023-0.068c-25.825,8.395-49.861,20.773-71.342,36.436
	c-2.746,17.352,9.081,33.657,26.433,36.414c17.712-12.884,37.494-23.091,58.773-30L176.893,12.524z"/>
<path style="fill:#D9F2A7;" d="M176.871,12.457l0.023,0.068c-7.967,15.641-1.778,34.782,13.841,42.783
	c20.548-6.684,42.479-10.296,65.266-10.296V0C228.386,0,201.796,4.366,176.871,12.457z"/>
<path style="fill:#B8DE6F;" d="M256,0c-12.434,12.434-12.434,32.577,0,45.011c22.742,0,44.651,3.601,65.165,10.263l13.942-42.749
	l0.022-0.068C310.204,4.366,283.614,0,256,0z"/>
<path style="fill:#00BAB9;" d="M335.129,12.457l-0.022,0.068c-15.641,7.978-21.864,27.097-13.942,42.749
	c21.301,6.909,41.118,17.115,58.852,30.011l26.466-36.403C384.99,33.229,360.954,20.851,335.129,12.457z"/>
<path style="fill:#80E2E2;" d="M406.472,48.893c-17.352,2.746-29.19,19.04-26.455,36.391c17.892,13.031,33.657,28.785,46.676,46.676
	l36.425-26.444C447.319,83.81,428.19,64.681,406.472,48.893z"/>
<path style="fill:#D9F2A7;" d="M463.107,105.528c-17.352-2.746-33.657,9.081-36.414,26.433c12.884,17.712,23.091,37.494,30,58.773
	l42.783-13.841l0.068-0.023C491.149,151.046,478.771,127.01,463.107,105.528z"/>
<path style="fill:#B8DE6F;" d="M499.543,176.871l-0.068,0.023c-15.641-7.967-34.782-1.778-42.783,13.841
	c6.684,20.548,10.296,42.479,10.296,65.266H512C512,228.386,507.634,201.796,499.543,176.871z"/>
<path style="fill:#00BAB9;" d="M466.989,256c0,22.742-3.601,44.651-10.263,65.165l42.749,13.942l0.068,0.022
	C507.634,310.204,512,283.614,512,256C499.566,243.566,479.423,243.566,466.989,256z"/>
<path style="fill:#80E2E2;" d="M499.476,335.107c-7.978-15.641-27.097-21.864-42.749-13.942
	c-6.909,21.301-17.115,41.118-30.011,58.852l36.403,26.466c15.653-21.493,28.031-45.529,36.425-71.354L499.476,335.107z"/>
<path style="fill:#D9F2A7;" d="M426.715,380.017c-13.031,17.892-28.784,33.657-46.676,46.676l26.444,36.425
	c21.707-15.799,40.836-34.929,56.624-56.646C460.361,389.12,444.067,377.282,426.715,380.017z"/>
<path style="fill:#B8DE6F;" d="M380.039,426.693c-17.712,12.884-37.494,23.091-58.773,30l13.841,42.783l0.022,0.068
	c25.825-8.395,49.861-20.773,71.342-36.436C409.217,445.755,397.391,429.45,380.039,426.693z"/>
<path style="fill:#00BAB9;" d="M321.266,456.693c-20.548,6.684-42.479,10.296-65.266,10.296V512
	c27.614,0,54.204-4.366,79.129-12.457l-0.022-0.068C343.074,483.834,336.885,464.693,321.266,456.693z"/>
<path style="fill:#80E2E2;" d="M256,466.989c-22.742,0-44.64-3.601-65.165-10.263l-13.942,42.749l-0.023,0.068
	C201.796,507.634,228.386,512,256,512C268.434,499.566,268.434,479.423,256,466.989z"/>
<path style="fill:#D9F2A7;" d="M190.835,456.727c-21.301-6.909-41.118-17.115-58.852-30.011l-26.466,36.403
	c21.493,15.653,45.529,28.031,71.354,36.425l0.023-0.068C192.535,491.498,198.757,472.379,190.835,456.727z"/>
<path style="fill:#B8DE6F;" d="M131.983,426.715c-17.892-13.031-33.657-28.784-46.676-46.676l-36.425,26.444
	c15.799,21.707,34.929,40.836,56.646,56.624C122.88,460.361,134.718,444.067,131.983,426.715z"/>
<path style="fill:#00BAB9;" d="M55.307,321.266l-42.783,13.841l-0.068,0.022c8.395,25.825,20.773,49.861,36.436,71.342
	c17.352,2.746,33.657-9.081,36.414-26.433C72.423,362.327,62.216,342.545,55.307,321.266z"/>
<path style="fill:#80E2E2;" d="M45.011,256c0,22.787,3.612,44.718,10.296,65.266c-8.001,15.619-27.142,21.808-42.783,13.841
	l-0.068,0.022C4.366,310.204,0,283.614,0,256C12.434,268.434,32.577,268.434,45.011,256z"/>
<g>
</g>
<g>
</g>
<g>
</g>
<g>
</g>
<g>
</g>
<g>
</g>
<g>
</g>
<g>
</g>
<g>
</g>
<g>
</g>
<g>
</g>
<g>
</g>
<g>
</g>
<g>
</g>
<g>
</g>
</svg>
